<svg xmlns="http://www.w3.org/2000/svg" width="256" height="256" viewBox="187 183 879 879" data-icon-background="browser" role="img" aria-labelledby="title">
  <title id="title">Noodle Browser symbol</title>
  <g id="symbol" fill="#1d1d1f" fill-rule="evenodd">
    <path d="M600.40,210.40 C625.96,208.08 652.80,209.70 678.10,212.90 C706.32,216.46 735.08,222.11 761.87,232.13 C794.90,244.49 828.92,259.56 857.60,280.40 C885.65,300.78 914.19,322.55 936.72,349.28 C957.29,373.69 976.06,399.22 991.97,427.03 C1015.57,468.28 1030.62,515.09 1038.22,561.78 C1042.70,589.29 1045.93,617.97 1043.99,645.99 C1039.36,712.91 1021.04,776.63 986.60,834.60 C933.40,924.15 843.31,990.90 743.60,1019.60 C714.53,1027.97 684.94,1031.52 655.04,1034.04 C638.18,1035.46 620.01,1036.33 603.04,1034.96 C564.43,1031.84 524.80,1026.57 488.13,1012.87 C459.69,1002.24 432.53,990.12 406.40,974.60 C333.22,931.12 274.47,862.19 240.69,784.31 C228.33,755.80 218.77,724.52 214.22,693.78 C211.97,678.56 211.15,663.50 209.78,648.22 C206.82,615.34 210.33,581.08 216.79,548.79 C236.79,448.78 292.48,359.48 372.82,296.82 C407.01,270.17 445.35,250.51 485.40,234.40 C521.97,219.70 561.60,213.92 600.40,210.40 Z
      M519.10,277.20 C519.22,276.72 519.26,276.31 519.33,275.89 C515.44,275.99 511.13,278.12 507.37,279.37 C498.52,282.33 489.87,285.63 481.31,289.31 C444.29,305.17 411.39,326.89 380.72,352.72 C272.60,443.78 231.12,598.24 270.40,732.60 C284.72,781.58 311.13,824.62 343.72,863.28 C379.82,906.11 427.76,939.53 479.60,960.40 C491.10,965.03 502.70,968.97 514.60,972.40 C519.29,973.75 524.21,975.98 528.99,975.45 C528.28,971.94 525.16,970.00 522.82,967.18 C517.25,960.44 511.97,953.27 506.82,946.18 C493.42,927.71 481.89,907.13 472.69,886.31 C458.28,853.67 449.58,819.94 441.37,785.39 C447.03,787.99 454.43,792.53 461.40,794.60 C468.50,796.71 476.22,796.85 483.26,796.74 C497.63,848.98 514.61,901.80 549.18,944.82 C557.23,954.85 565.24,964.65 574.75,973.25 C578.52,976.66 582.64,982.67 587.52,984.48 C590.14,985.46 593.16,984.83 595.90,985.10 C606.56,986.17 617.23,986.00 628.00,986.00 C637.45,986.00 646.75,986.03 656.10,985.10 C659.43,984.77 663.04,985.62 666.13,984.13 C668.06,983.21 669.74,980.76 671.40,979.40 C680.07,972.28 688.07,963.85 695.28,955.28 C721.03,924.70 740.94,888.60 753.63,850.63 C757.07,840.32 760.60,830.04 763.60,819.60 C765.61,812.62 766.52,804.31 770.37,798.37 C783.32,798.78 795.66,798.04 808.52,796.28 C809.62,799.79 807.59,804.70 806.61,808.61 C804.38,817.54 801.86,826.34 799.12,835.12 C787.86,871.33 772.31,905.07 752.20,937.20 C746.23,946.75 738.92,956.08 731.72,964.72 C729.29,967.63 722.77,973.05 723.02,976.26 C753.34,968.60 782.84,958.70 810.32,943.32 C885.17,901.44 942.59,836.21 974.60,756.60 C988.66,721.63 993.92,685.12 997.04,648.04 C998.11,635.25 998.11,622.75 997.04,609.96 C995.49,591.56 994.74,573.40 990.79,555.21 C975.36,484.22 940.53,414.86 886.25,365.75 C882.24,362.12 878.85,357.76 874.72,354.28 C846.10,330.15 815.23,308.30 780.69,293.31 C765.96,286.91 749.89,278.37 734.03,276.53 C749.82,299.29 766.54,322.12 777.99,348.01 C805.84,410.96 820.17,480.02 826.90,548.10 C828.17,561.03 827.95,574.03 829.04,586.96 C830.38,602.89 830.00,618.96 830.00,635.00 C830.00,645.91 830.74,657.11 829.99,667.99 C829.62,673.30 828.79,678.74 827.46,683.46 C820.36,685.97 813.28,688.75 806.12,691.12 C802.63,692.28 799.15,693.64 795.44,692.56 C793.43,691.97 792.95,690.60 791.52,689.48 C791.56,681.13 790.33,672.49 791.04,664.04 C792.75,643.71 793.68,621.48 791.96,601.04 C790.09,578.73 789.20,556.39 786.90,534.10 C783.00,496.38 775.06,458.06 764.40,421.60 C755.34,390.62 744.60,359.66 728.40,331.60 C717.40,312.54 705.38,293.88 689.75,278.25 C685.24,273.74 679.34,266.01 673.29,263.71 C670.63,262.71 667.86,263.18 665.10,262.90 C659.02,262.27 653.16,262.06 647.00,262.00 C634.18,261.87 621.76,260.63 608.90,261.90 C602.63,262.51 596.23,262.43 589.96,262.96 C586.28,263.27 582.50,262.40 579.04,264.04 C576.58,265.21 574.69,267.88 572.60,269.60 C561.22,278.95 552.21,290.75 543.60,302.60 C519.77,335.39 502.76,373.54 491.40,412.40 C488.33,422.89 485.37,433.50 483.21,444.21 C482.22,449.15 481.91,456.19 479.67,460.67 C478.43,463.15 475.38,464.61 473.28,466.28 C468.44,470.12 464.13,474.37 459.75,478.75 C448.37,490.13 439.65,503.24 430.44,515.88 C438.52,456.78 452.81,399.69 476.69,344.69 C484.13,327.57 494.43,310.49 505.40,295.40 C508.49,291.15 511.68,287.02 514.82,282.82 C515.95,281.31 518.62,279.01 519.10,277.20 Z
      M597.40,451.40 C658.45,445.80 724.53,470.32 750.31,529.69 C757.27,545.74 761.92,562.86 763.78,580.22 C766.90,609.40 765.00,639.61 765.00,669.00 C765.00,675.48 764.35,682.35 765.22,688.78 C767.01,701.94 777.86,712.13 791.01,712.99 C795.43,713.28 800.23,713.27 804.60,712.60 C819.69,710.26 832.00,700.09 847.90,702.10 C870.92,705.02 878.42,733.86 864.24,750.24 C852.98,763.24 835.40,769.13 819.19,773.19 C779.49,783.11 734.67,774.97 709.82,740.18 C698.45,724.26 695.44,705.99 694.04,686.96 C693.76,683.22 695.01,679.76 694.89,676.09 C694.55,666.46 694.75,656.75 694.67,647.12 C694.62,639.85 693.38,632.47 694.10,625.10 C697.31,592.51 694.60,556.67 668.24,533.76 C618.44,490.48 522.39,519.90 516.10,589.10 C515.00,601.21 516.00,613.84 516.00,626.00 C516.00,650.67 516.00,675.33 516.00,700.00 C516.00,714.82 517.88,731.08 514.59,745.59 C508.73,771.40 476.31,785.44 454.82,768.18 C443.42,759.01 443.00,744.36 443.00,731.00 C443.00,709.67 443.00,688.33 443.00,667.00 C443.00,650.67 443.00,634.33 443.00,618.00 C443.00,601.82 442.88,585.92 447.19,570.19 C465.77,502.39 528.90,457.68 597.40,451.40 Z"/>
  </g>
</svg>
