<svg xmlns="http://www.w3.org/2000/svg" width="256" height="256" viewBox="211.5 174.5 900 900" data-icon-background="noodle" role="img" aria-labelledby="title">
  <title id="title">Noodle symbol</title>
  <g id="symbol" fill="#1d1d1f" fill-rule="evenodd">
    <path d="M593.40,279.40 C601.42,278.67 609.09,279.29 617.04,279.96 C624.66,280.60 632.28,280.32 639.90,281.10 C660.76,283.26 681.44,287.97 701.37,294.63 C730.46,304.34 757.29,318.83 781.82,337.18 C838.09,379.26 874.52,444.88 884.78,514.22 C889.47,545.97 889.00,577.87 889.00,610.00 C889.00,648.33 889.00,686.67 889.00,725.00 C889.00,741.98 888.08,759.15 888.08,776.00 C888.08,778.37 889.00,780.58 888.95,782.97 C888.63,798.80 885.79,815.69 889.64,831.36 C894.50,851.19 916.85,850.41 933.00,849.00 C943.26,848.11 952.92,844.15 963.10,843.10 C985.67,840.78 1004.17,852.55 1012.60,873.40 C1015.17,879.75 1015.99,886.21 1016.00,893.00 C1016.01,898.34 1015.91,903.39 1014.59,908.59 C1006.72,939.59 977.13,955.21 948.39,962.39 C923.05,968.73 897.04,970.19 871.22,966.78 C834.98,961.98 800.51,937.92 782.68,906.32 C771.65,886.80 764.36,864.20 762.10,841.90 C759.80,819.18 761.00,795.88 761.00,773.00 C761.00,714.67 761.00,656.33 761.00,598.00 C761.00,578.52 762.08,559.54 759.90,540.10 C755.70,502.77 736.91,464.39 706.27,441.73 C687.73,428.02 667.43,418.14 644.79,413.21 C635.92,411.28 627.07,410.79 618.10,409.90 C598.80,407.97 578.86,409.20 559.79,412.79 C544.26,415.71 529.64,420.73 515.34,427.34 C474.18,446.32 445.76,489.02 439.22,533.22 C434.31,566.46 437.00,601.38 437.00,635.00 C437.00,702.00 437.00,769.00 437.00,836.00 C437.00,849.09 436.00,861.96 436.00,875.00 C436.00,886.78 437.11,899.18 435.90,910.90 C433.76,931.56 420.80,950.85 402.33,960.33 C396.95,963.10 391.32,965.17 385.39,966.39 C376.62,968.18 368.04,968.54 359.22,966.78 C336.41,962.22 316.22,944.47 310.41,921.59 C306.63,906.70 308.03,891.07 308.99,875.99 C310.32,855.18 309.00,833.85 309.00,813.00 C309.00,776.68 309.55,740.26 309.55,704.00 C309.55,668.95 309.00,633.35 309.00,598.00 C309.00,567.55 309.07,537.23 314.22,507.22 C322.14,461.08 341.93,415.94 371.82,379.82 C401.87,343.52 442.43,316.05 486.40,299.40 C511.78,289.79 539.21,283.88 566.10,281.10 C575.18,280.17 584.33,280.22 593.40,279.40 Z"/>
  </g>
</svg>
